<mxfile host="Electron" modified="2023-09-26T15:24:06.725Z" agent="Mozilla/5.0 (Windows NT 10.0; Win64; x64) AppleWebKit/537.36 (KHTML, like Gecko) draw.io/21.8.2 Chrome/114.0.5735.289 Electron/25.8.1 Safari/537.36" etag="g_8G2zxRWdGwa3_llh2x" version="21.8.2" type="device">
  <diagram name="Page-1" id="O9Q-bdUjlAk_4FWnAKjo">
    <mxGraphModel dx="1434" dy="836" grid="1" gridSize="10" guides="1" tooltips="1" connect="1" arrows="1" fold="1" page="1" pageScale="1" pageWidth="850" pageHeight="1100" math="0" shadow="0">
      <root>
        <mxCell id="0" />
        <mxCell id="1" parent="0" />
        <mxCell id="JC_gXGqmLVgeR7RwK2Sw-1" value="Legend" style="shape=table;startSize=30;container=1;collapsible=0;childLayout=tableLayout;fontSize=16;align=left;verticalAlign=top;fontStyle=1;spacingLeft=6;spacing=0;resizable=0;" vertex="1" parent="1">
          <mxGeometry x="60" y="215" width="180" height="90" as="geometry" />
        </mxCell>
        <mxCell id="JC_gXGqmLVgeR7RwK2Sw-2" value="" style="shape=tableRow;horizontal=0;startSize=0;swimlaneHead=0;swimlaneBody=0;strokeColor=inherit;top=0;left=0;bottom=0;right=0;collapsible=0;dropTarget=0;fillColor=none;points=[[0,0.5],[1,0.5]];portConstraint=eastwest;fontSize=12;" vertex="1" parent="JC_gXGqmLVgeR7RwK2Sw-1">
          <mxGeometry y="30" width="180" height="30" as="geometry" />
        </mxCell>
        <mxCell id="JC_gXGqmLVgeR7RwK2Sw-3" value="Found" style="shape=partialRectangle;html=1;whiteSpace=wrap;connectable=0;strokeColor=#82b366;overflow=hidden;fillColor=#d5e8d4;top=0;left=0;bottom=0;right=0;pointerEvents=1;fontSize=12;align=left;spacingLeft=10;spacingRight=4;" vertex="1" parent="JC_gXGqmLVgeR7RwK2Sw-2">
          <mxGeometry width="180" height="30" as="geometry">
            <mxRectangle width="180" height="30" as="alternateBounds" />
          </mxGeometry>
        </mxCell>
        <mxCell id="JC_gXGqmLVgeR7RwK2Sw-4" value="" style="shape=tableRow;horizontal=0;startSize=0;swimlaneHead=0;swimlaneBody=0;strokeColor=inherit;top=0;left=0;bottom=0;right=0;collapsible=0;dropTarget=0;fillColor=none;points=[[0,0.5],[1,0.5]];portConstraint=eastwest;fontSize=12;" vertex="1" parent="JC_gXGqmLVgeR7RwK2Sw-1">
          <mxGeometry y="60" width="180" height="30" as="geometry" />
        </mxCell>
        <mxCell id="JC_gXGqmLVgeR7RwK2Sw-5" value="Not Found" style="shape=partialRectangle;html=1;whiteSpace=wrap;connectable=0;strokeColor=#b85450;overflow=hidden;fillColor=#f8cecc;top=0;left=0;bottom=0;right=0;pointerEvents=1;fontSize=12;align=left;spacingLeft=10;spacingRight=4;" vertex="1" parent="JC_gXGqmLVgeR7RwK2Sw-4">
          <mxGeometry width="180" height="30" as="geometry">
            <mxRectangle width="180" height="30" as="alternateBounds" />
          </mxGeometry>
        </mxCell>
        <mxCell id="JC_gXGqmLVgeR7RwK2Sw-6" value="" style="group" vertex="1" connectable="0" parent="1">
          <mxGeometry x="320" y="245" width="130" height="30" as="geometry" />
        </mxCell>
        <mxCell id="JC_gXGqmLVgeR7RwK2Sw-7" value="" style="rounded=0;whiteSpace=wrap;html=1;" vertex="1" parent="JC_gXGqmLVgeR7RwK2Sw-6">
          <mxGeometry y="5" width="130" height="20" as="geometry" />
        </mxCell>
        <mxCell id="JC_gXGqmLVgeR7RwK2Sw-8" value="MAX66300" style="text;html=1;strokeColor=none;fillColor=none;align=center;verticalAlign=middle;whiteSpace=wrap;rounded=0;" vertex="1" parent="JC_gXGqmLVgeR7RwK2Sw-6">
          <mxGeometry x="35" width="60" height="30" as="geometry" />
        </mxCell>
        <mxCell id="JC_gXGqmLVgeR7RwK2Sw-9" value="" style="endArrow=classic;startArrow=classic;html=1;rounded=0;fillColor=#d5e8d4;strokeColor=#82b366;" edge="1" parent="1" source="JC_gXGqmLVgeR7RwK2Sw-13">
          <mxGeometry width="50" height="50" relative="1" as="geometry">
            <mxPoint x="390" y="320" as="sourcePoint" />
            <mxPoint x="390" y="270" as="targetPoint" />
          </mxGeometry>
        </mxCell>
        <mxCell id="JC_gXGqmLVgeR7RwK2Sw-10" value="7 cm" style="text;html=1;strokeColor=none;fillColor=none;align=center;verticalAlign=middle;whiteSpace=wrap;rounded=0;" vertex="1" parent="1">
          <mxGeometry x="380" y="280" width="60" height="30" as="geometry" />
        </mxCell>
        <mxCell id="JC_gXGqmLVgeR7RwK2Sw-11" value="" style="group" vertex="1" connectable="0" parent="1">
          <mxGeometry x="360" y="320" width="60" height="30" as="geometry" />
        </mxCell>
        <mxCell id="JC_gXGqmLVgeR7RwK2Sw-12" value="" style="rounded=1;whiteSpace=wrap;html=1;" vertex="1" parent="JC_gXGqmLVgeR7RwK2Sw-11">
          <mxGeometry x="10" y="5" width="40" height="20" as="geometry" />
        </mxCell>
        <mxCell id="JC_gXGqmLVgeR7RwK2Sw-13" value="Node" style="text;html=1;strokeColor=none;fillColor=none;align=center;verticalAlign=middle;whiteSpace=wrap;rounded=0;" vertex="1" parent="JC_gXGqmLVgeR7RwK2Sw-11">
          <mxGeometry width="60" height="30" as="geometry" />
        </mxCell>
      </root>
    </mxGraphModel>
  </diagram>
</mxfile>
